<svg xmlns="http://www.w3.org/2000/svg" viewBox="0 0 100 100" width="32" height="32">
  <defs>
    <style>
      .logo-fill {
        fill: #0C2340; /* Yankees Navy */
      }
    </style>
  </defs>
  <!-- Letter Y -->
  <path class="logo-fill" d="M62.8,75.3V52.8l10.9-22.1h8.1L69.4,54.8v20.5c0,9.1-2.9,13.6-8.8,13.6s-8.8-4.5-8.8-13.6V54.8L39.4,30.7h8.1 l10.9,22.1v22.5H62.8z M50,5.7c-3.1,0-5.6,2.5-5.6,5.6v12.5h11.2V11.2C55.6,8.2,53.1,5.7,50,5.7z"/>
  <!-- Letter N -->
  <path class="logo-fill" d="M40.6,89.3c-9.1,0-13.6-2.9-13.6-8.8V19.4h-8.1v61.1c0,12.3,6.8,18.1,19.4,18.1s19.4-5.8,19.4-18.1V19.4h-8.1 v61.1C49.4,86.4,45,89.3,40.6,89.3z"/>
</svg>